<?xml version="1.0" encoding="UTF-8" standalone="no"?>
<svg
   xmlns:dc="http://purl.org/dc/elements/1.1/"
   xmlns:cc="http://creativecommons.org/ns#"
   xmlns:rdf="http://www.w3.org/1999/02/22-rdf-syntax-ns#"
   xmlns:svg="http://www.w3.org/2000/svg"
   xmlns="http://www.w3.org/2000/svg"
   version="1.1"
   x="0px"
   y="0px"
   viewBox="0 0 24 24"
   enable-background="new 0 0 24 24"
   xml:space="preserve"
   id="svg16"
   width="24"
   height="24">
  <metadata
   id="metadata22">
    <rdf:RDF>
      <cc:Work
   rdf:about="">
        <dc:format>image/svg+xml</dc:format>

        <dc:type
   rdf:resource="http://purl.org/dc/dcmitype/StillImage" />

        <dc:title></dc:title>

      </cc:Work>

    </rdf:RDF>

  </metadata>

  <defs
   id="defs20" />

  <path
   d="M 20.1,8.4 V 4.8 H 18.21 V 3 H 3.9 v 2.7 h 1.8 c 0.54,0 0.9,0.36 0.9,0.9 0,0.54 -0.36,0.9 -0.9,0.9 H 3.9 v 3.6 h 1.8 c 0.54,0 0.9,0.36 0.9,0.9 0,0.54 -0.36,0.9 -0.9,0.9 H 3.9 v 3.6 h 1.8 c 0.54,0 0.9,0.36 0.9,0.9 0,0.54 -0.36,0.9 -0.9,0.9 H 3.9 V 21 H 18.21 V 19.2 H 20.1 V 15.6 H 18.21 V 13.8 H 20.1 V 10.2 H 18.21 V 8.4 Z M 14.7,9.3 H 8.4 V 5.7 h 6.3 z"
   id="path10"
   style="fill:#000000;stroke-width:0.9" />

</svg>
